<svg xmlns="http://www.w3.org/2000/svg" version="1.1" xmlns:xlink="http://www.w3.org/1999/xlink" xmlns:svgjs="http://svgjs.dev/svgjs" width="1000" height="1000" viewBox="0 0 1000 1000"><rect width="1000" height="1000" fill="#273b5b"></rect><g transform="matrix(0.7,0,0,0.7,149.57575757575756,282.1265587044535)"><svg viewBox="0 0 396 247" data-background-color="#273b5b" preserveAspectRatio="xMidYMid meet" height="623" width="1000" xmlns="http://www.w3.org/2000/svg" xmlns:xlink="http://www.w3.org/1999/xlink"><defs></defs><g id="tight-bounds" transform="matrix(1,0,0,1,0.2400000000000091,-0.09999999999999432)"><svg viewBox="0 0 395.52 247.2" height="247.2" width="395.52"><g><svg></svg></g><g><svg viewBox="0 0 395.52 247.2" height="247.2" width="395.52"><g transform="matrix(1,0,0,1,75.54432,98.17627594123044)"><svg viewBox="0 0 244.43135999999998 50.847448117539095" height="50.847448117539095" width="244.43135999999998"><g><svg viewBox="0 0 318.0834032794738 66.16879824791431" height="50.847448117539095" width="244.43135999999998"><g transform="matrix(1,0,0,1,0,9.14489179837311)"><svg viewBox="0 0 244.43135999999998 47.87901465116809" height="47.87901465116809" width="244.43135999999998"><g><svg viewBox="0 0 244.43135999999998 47.87901465116809" height="47.87901465116809" width="244.43135999999998"><g><svg viewBox="0 0 244.43135999999998 31.698457410154024" height="31.698457410154024" width="244.43135999999998"><g transform="matrix(1,0,0,1,0,0)"><svg width="244.43135999999998" viewBox="4 -34.099998474121094 267.92999267578125 34.099998474121094" height="31.698457410154024" data-palette-color="#ffffff"><g class="undefined-text-0" data-fill-palette-color="primary" id="text-0"><path d="M4 0L4-34.1 15.4-34.1Q20-34.1 22.75-31.3 25.5-28.5 25.5-23.55L25.5-23.55Q25.5-18.65 22.63-15.85 19.75-13.05 15-13.05L15-13.05 7.75-13.05 7.75 0 4 0ZM7.75-16.15L14.9-16.15Q18.25-16.15 20-18.03 21.75-19.9 21.75-23.55L21.75-23.55Q21.75-27.2 20-29.1 18.25-31 14.9-31L14.9-31 7.75-31 7.75-16.15ZM55.4 0L51.9 0 48.4-9.55 34.25-9.55 31.1 0 27.35 0 39.45-34.1 42.95-34.1 55.4 0ZM41.15-29.2L35.4-12.65 47.25-12.65 41.15-29.2ZM71.2 0L67.5 0 67.5-31 56.75-31 56.75-34.1 81.95-34.1 81.95-31 71.2-31 71.2 0ZM90.44 0L86.69 0 86.69-34.1 90.44-34.1 90.44-19.35 108.44-19.35 108.44-34.1 112.19-34.1 112.19 0 108.44 0 108.44-16.25 90.44-16.25 90.44 0ZM123.89 0L120.14 0 120.14-34.1 138.74-34.1 138.74-30.95 123.89-30.95 123.89-19.05 134.89-19.05 134.89-16 123.89-16 123.89 0ZM151.84 0L141.49 0 141.49-3.3 144.79-3.3 144.79-30.8 141.49-30.8 141.49-34.1 151.84-34.1 151.84-30.8 148.54-30.8 148.54-3.3 151.84-3.3 151.84 0ZM162.34 0L158.59 0 158.59-34.1 162.59-34.1 179.94-5.65 179.94-34.1 183.69-34.1 183.69 0 179.69 0 162.34-28.35 162.34 0ZM191.68 0L191.68-34.1 200.13-34.1Q205.38-34.1 209.18-32.08 212.98-30.05 214.98-26.2 216.98-22.35 216.98-17L216.98-17Q216.98-9 212.53-4.5 208.08 0 200.13 0L200.13 0 191.68 0ZM195.43-3.4L200.03-3.4Q206.13-3.4 209.58-6.75 213.03-10.1 213.03-17L213.03-17Q213.03-23.95 209.58-27.3 206.13-30.65 200.03-30.65L200.03-30.65 195.43-30.65 195.43-3.4ZM242.93 0L223.68 0 223.68-34.1 242.78-34.1 242.78-30.95 227.43-30.95 227.43-19.05 239.43-19.05 239.43-16 227.43-16 227.43-3.1 242.93-3.1 242.93 0ZM271.93 0L267.98 0 259.33-15.05 252.58-15.05 252.58 0 248.83 0 248.83-34.1 260.23-34.1Q263.33-34.1 265.68-32.9 268.03-31.7 269.28-29.53 270.53-27.35 270.53-24.55L270.53-24.55Q270.53-21.15 268.48-18.73 266.43-16.3 263.03-15.45L263.03-15.45 271.93 0ZM252.58-31L252.58-18.15 259.73-18.15Q263.03-18.15 264.8-19.9 266.58-21.65 266.58-24.55L266.58-24.55Q266.58-27.45 264.8-29.23 263.03-31 259.73-31L259.73-31 252.58-31Z" fill="#ffffff" data-fill-palette-color="primary"></path></g></svg></g></svg></g><g transform="matrix(1,0,0,1,100.925708544,39.18170244171355)"><svg viewBox="0 0 143.50565145599998 8.697312209454545" height="8.697312209454545" width="143.50565145599998"><g transform="matrix(1,0,0,1,0,0)"><svg width="143.50565145599998" viewBox="2.75 -36.29999923706055 763.8599853515625 46.29999923706055" height="8.697312209454545" data-palette-color="#ffffff"><path d="M13.1 0L2.75 0 2.75-3.3 6.05-3.3 6.05-30.8 2.75-30.8 2.75-34.1 13.1-34.1 13.1-30.8 9.8-30.8 9.8-3.3 13.1-3.3 13.1 0ZM30.15-24.2Q32.6-24.2 34.67-23.2 36.75-22.2 37.97-20.25 39.2-18.3 39.2-15.65L39.2-15.65 39.2 0 35.8 0 35.8-14.15Q35.8-21.1 29.6-21.1L29.6-21.1Q26-21.1 24.2-18.55 22.4-16 22.4-11.7L22.4-11.7 22.4 0 19 0 19-23.4 22.4-23.4 22.4-19.5Q23.6-21.75 25.57-22.98 27.55-24.2 30.15-24.2L30.15-24.2ZM50.5 0L47.1 0 47.1-20.3 43.1-20.3 43.1-23.4 47.1-23.4 47.1-31.15 50.5-31.15 50.5-23.4 55.9-23.4 55.9-20.3 50.5-20.3 50.5 0ZM69.69-24.2Q72.84-24.2 75.39-22.65 77.94-21.1 79.39-18.43 80.84-15.75 80.84-12.45L80.84-12.45Q80.84-11.5 80.79-11L80.79-11 61.54-11Q61.74-7.4 63.89-4.85 66.04-2.3 69.74-2.3L69.74-2.3Q72.74-2.3 74.72-3.43 76.69-4.55 77.89-6.55L77.89-6.55 80.59-4.75Q78.94-2.15 76.24-0.68 73.54 0.8 69.84 0.8L69.84 0.8Q66.44 0.8 63.79-0.8 61.14-2.4 59.64-5.25 58.14-8.1 58.14-11.7L58.14-11.7Q58.14-15.3 59.62-18.15 61.09-21 63.72-22.6 66.34-24.2 69.69-24.2L69.69-24.2ZM61.74-13.8L77.44-13.8Q76.94-17.45 74.99-19.28 73.04-21.1 69.69-21.1L69.69-21.1Q66.44-21.1 64.37-19.03 62.29-16.95 61.74-13.8L61.74-13.8ZM97.34-24.2Q98.54-24.2 99.64-23.85L99.64-23.85 99.64-20.75Q98.59-21.25 97.34-21.25L97.34-21.25Q95.19-21.25 93.34-20.05 91.49-18.85 90.37-16.57 89.24-14.3 89.24-11.2L89.24-11.2 89.24 0 85.84 0 85.84-23.4 89.24-23.4 89.24-18.7Q90.59-21.3 92.67-22.75 94.74-24.2 97.34-24.2L97.34-24.2ZM121.14-23.4L124.54-23.4 124.54 0 121.14 0 121.14-3.45Q119.69-1.45 117.59-0.33 115.49 0.8 112.99 0.8L112.99 0.8Q109.64 0.8 106.99-0.8 104.34-2.4 102.84-5.25 101.34-8.1 101.34-11.75L101.34-11.75Q101.34-15.35 102.81-18.18 104.29-21 106.91-22.6 109.54-24.2 112.89-24.2L112.89-24.2Q115.44-24.2 117.56-23.08 119.69-21.95 121.14-19.9L121.14-19.9 121.14-23.4ZM112.89-2.3Q115.29-2.3 117.16-3.5 119.04-4.7 120.09-6.85 121.14-9 121.14-11.7L121.14-11.7Q121.14-14.4 120.09-16.55 119.04-18.7 117.16-19.9 115.29-21.1 112.89-21.1L112.89-21.1Q110.54-21.1 108.69-19.9 106.84-18.7 105.79-16.57 104.74-14.45 104.74-11.75L104.74-11.75Q104.74-9 105.79-6.85 106.84-4.7 108.69-3.5 110.54-2.3 112.89-2.3L112.89-2.3ZM140.99 0.8Q137.59 0.8 134.94-0.8 132.29-2.4 130.79-5.25 129.29-8.1 129.29-11.7L129.29-11.7Q129.29-15.3 130.76-18.15 132.24-21 134.89-22.6 137.54-24.2 140.89-24.2L140.89-24.2Q143.74-24.2 145.86-22.98 147.99-21.75 149.74-19.5L149.74-19.5 147.24-17.55Q144.79-21.1 140.89-21.1L140.89-21.1Q138.54-21.1 136.66-19.9 134.79-18.7 133.74-16.55 132.69-14.4 132.69-11.7L132.69-11.7Q132.69-9 133.74-6.85 134.79-4.7 136.66-3.5 138.54-2.3 140.89-2.3L140.89-2.3Q143.29-2.3 144.84-3.13 146.39-3.95 147.64-5.55L147.64-5.55 150.29-3.7Q148.64-1.65 146.21-0.43 143.79 0.8 140.99 0.8L140.99 0.8ZM159.33 0L155.93 0 155.93-20.3 151.93-20.3 151.93-23.4 155.93-23.4 155.93-31.15 159.33-31.15 159.33-23.4 164.73-23.4 164.73-20.3 159.33-20.3 159.33 0ZM173.68 0L170.28 0 170.28-23.4 173.68-23.4 173.68 0ZM171.98-27.95Q170.83-27.95 170.06-28.75 169.28-29.55 169.28-30.7L169.28-30.7Q169.28-31.8 170.06-32.58 170.83-33.35 171.98-33.35L171.98-33.35Q173.08-33.35 173.88-32.58 174.68-31.8 174.68-30.65L174.68-30.65Q174.68-29.55 173.88-28.75 173.08-27.95 171.98-27.95L171.98-27.95ZM190.18-3.65L196.98-23.4 200.43-23.4 191.93 0 188.18 0 179.73-23.4 183.28-23.4 190.18-3.65ZM213.68-24.2Q216.83-24.2 219.38-22.65 221.93-21.1 223.38-18.43 224.83-15.75 224.83-12.45L224.83-12.45Q224.83-11.5 224.78-11L224.78-11 205.53-11Q205.73-7.4 207.88-4.85 210.03-2.3 213.73-2.3L213.73-2.3Q216.73-2.3 218.7-3.43 220.68-4.55 221.88-6.55L221.88-6.55 224.58-4.75Q222.93-2.15 220.23-0.68 217.53 0.8 213.83 0.8L213.83 0.8Q210.43 0.8 207.78-0.8 205.13-2.4 203.63-5.25 202.13-8.1 202.13-11.7L202.13-11.7Q202.13-15.3 203.6-18.15 205.08-21 207.7-22.6 210.33-24.2 213.68-24.2L213.68-24.2ZM205.73-13.8L221.43-13.8Q220.93-17.45 218.98-19.28 217.03-21.1 213.68-21.1L213.68-21.1Q210.43-21.1 208.35-19.03 206.28-16.95 205.73-13.8L205.73-13.8ZM251.82 0L251.82-34.1 260.27-34.1Q265.52-34.1 269.32-32.08 273.12-30.05 275.12-26.2 277.12-22.35 277.12-17L277.12-17Q277.12-9 272.67-4.5 268.22 0 260.27 0L260.27 0 251.82 0ZM255.57-3.4L260.17-3.4Q266.27-3.4 269.72-6.75 273.17-10.1 273.17-17L273.17-17Q273.17-23.95 269.72-27.3 266.27-30.65 260.17-30.65L260.17-30.65 255.57-30.65 255.57-3.4ZM288.27 0L284.87 0 284.87-23.4 288.27-23.4 288.27 0ZM286.57-27.95Q285.42-27.95 284.64-28.75 283.87-29.55 283.87-30.7L283.87-30.7Q283.87-31.8 284.64-32.58 285.42-33.35 286.57-33.35L286.57-33.35Q287.67-33.35 288.47-32.58 289.27-31.8 289.27-30.65L289.27-30.65Q289.27-29.55 288.47-28.75 287.67-27.95 286.57-27.95L286.57-27.95ZM291.02 10L291.02 6.9 292.42 6.9Q294.17 6.9 295.29 5.7 296.42 4.5 296.42 2.6L296.42 2.6 296.42-23.4 299.82-23.4 299.82 2.6Q299.82 5.85 297.74 7.93 295.67 10 292.42 10L292.42 10 291.02 10ZM298.12-27.95Q296.97-27.95 296.19-28.75 295.42-29.55 295.42-30.7L295.42-30.7Q295.42-31.8 296.19-32.58 296.97-33.35 298.12-33.35L298.12-33.35Q299.22-33.35 300.02-32.58 300.82-31.8 300.82-30.65L300.82-30.65Q300.82-29.55 300.02-28.75 299.22-27.95 298.12-27.95L298.12-27.95ZM324.31 0L320.51 0 312.31-12.05 309.46-9.3 309.46 0 306.06 0 306.06-36.3 309.46-36.3 309.46-13.6 319.71-23.4 324.11-23.4 314.66-14.3 324.31 0ZM336.11 0.8Q332.71 0.8 330.14-0.65 327.56-2.1 326.21-4.75L326.21-4.75 329.26-6.25Q331.11-2.3 336.51-2.3L336.51-2.3Q339.11-2.3 340.81-3.25 342.51-4.2 342.51-6.2L342.51-6.2Q342.51-8.25 341.14-9.25 339.76-10.25 336.31-10.55L336.31-10.55Q331.51-10.95 329.44-12.7 327.36-14.45 327.36-17.35L327.36-17.35Q327.36-20.6 329.71-22.4 332.06-24.2 336.16-24.2L336.16-24.2Q343.11-24.2 345.61-18.7L345.61-18.7 342.56-17.2Q341.71-19.2 340.09-20.15 338.46-21.1 335.91-21.1L335.91-21.1Q333.31-21.1 331.94-20.15 330.56-19.2 330.56-17.45L330.56-17.45Q330.56-15.8 332.04-14.78 333.51-13.75 337.11-13.45L337.11-13.45Q341.56-13.05 343.74-11.28 345.91-9.5 345.91-6.6L345.91-6.6Q345.91-4.25 344.56-2.58 343.21-0.9 340.96-0.05 338.71 0.8 336.11 0.8L336.11 0.8ZM355.71 0L352.31 0 352.31-20.3 348.31-20.3 348.31-23.4 352.31-23.4 352.31-31.15 355.71-31.15 355.71-23.4 361.11-23.4 361.11-20.3 355.71-20.3 355.71 0ZM376.31-24.2Q377.51-24.2 378.61-23.85L378.61-23.85 378.61-20.75Q377.56-21.25 376.31-21.25L376.31-21.25Q374.16-21.25 372.31-20.05 370.46-18.85 369.33-16.57 368.21-14.3 368.21-11.2L368.21-11.2 368.21 0 364.81 0 364.81-23.4 368.21-23.4 368.21-18.7Q369.56-21.3 371.63-22.75 373.71-24.2 376.31-24.2L376.31-24.2ZM400.1-23.4L403.5-23.4 403.5 0 400.1 0 400.1-3.45Q398.65-1.45 396.55-0.33 394.45 0.8 391.95 0.8L391.95 0.8Q388.6 0.8 385.95-0.8 383.3-2.4 381.8-5.25 380.3-8.1 380.3-11.75L380.3-11.75Q380.3-15.35 381.78-18.18 383.25-21 385.88-22.6 388.5-24.2 391.85-24.2L391.85-24.2Q394.4-24.2 396.53-23.08 398.65-21.95 400.1-19.9L400.1-19.9 400.1-23.4ZM391.85-2.3Q394.25-2.3 396.13-3.5 398-4.7 399.05-6.85 400.1-9 400.1-11.7L400.1-11.7Q400.1-14.4 399.05-16.55 398-18.7 396.13-19.9 394.25-21.1 391.85-21.1L391.85-21.1Q389.5-21.1 387.65-19.9 385.8-18.7 384.75-16.57 383.7-14.45 383.7-11.75L383.7-11.75Q383.7-9 384.75-6.85 385.8-4.7 387.65-3.5 389.5-2.3 391.85-2.3L391.85-2.3ZM444.9 0L440.9 0 438.15-3.3Q434.45 0.85 428.7 0.85L428.7 0.85Q424.5 0.85 422.27-1.35 420.05-3.55 420.05-7.3L420.05-7.3Q420.05-10.3 421.47-12.53 422.9-14.75 426.05-17.65L426.05-17.65 425.1-18.8Q423.05-21.25 422.3-23.13 421.55-25 421.55-26.9L421.55-26.9Q421.55-30.4 423.42-32.4 425.3-34.4 428.8-34.4L428.8-34.4Q431.9-34.4 433.95-32.73 436-31.05 436.05-27.5L436.05-27.5Q436.05-24.65 434.55-22.3 433.05-19.95 430.35-17.5L430.35-17.5 437.9-8.4Q438.75-10.35 439.15-12.35L439.15-12.35 442.1-11.95Q441.35-8.4 439.95-5.9L439.95-5.9 444.9 0ZM424.95-27.1Q424.95-25.35 425.52-23.95 426.1-22.55 427.65-20.7L427.65-20.7 428.4-19.8Q430.65-22.05 431.62-23.68 432.6-25.3 432.6-27.05L432.6-27.05Q432.6-29.15 431.6-30.23 430.6-31.3 428.85-31.3L428.85-31.3Q427.05-31.3 426-30.2 424.95-29.1 424.95-27.1L424.95-27.1ZM429.2-2.25Q433.45-2.25 436.2-5.6L436.2-5.6 427.95-15.4Q425.7-13.35 424.6-11.38 423.5-9.4 423.5-7.4L423.5-7.4Q423.5-5.05 424.97-3.65 426.45-2.25 429.2-2.25L429.2-2.25ZM484.19 0L480.69 0 477.19-9.55 463.04-9.55 459.89 0 456.14 0 468.24-34.1 471.74-34.1 484.19 0ZM469.94-29.2L464.19-12.65 476.04-12.65 469.94-29.2ZM496.19 0.8Q492.79 0.8 490.22-0.65 487.64-2.1 486.29-4.75L486.29-4.75 489.34-6.25Q491.19-2.3 496.59-2.3L496.59-2.3Q499.19-2.3 500.89-3.25 502.59-4.2 502.59-6.2L502.59-6.2Q502.59-8.25 501.22-9.25 499.84-10.25 496.39-10.55L496.39-10.55Q491.59-10.95 489.52-12.7 487.44-14.45 487.44-17.35L487.44-17.35Q487.44-20.6 489.79-22.4 492.14-24.2 496.24-24.2L496.24-24.2Q503.19-24.2 505.69-18.7L505.69-18.7 502.64-17.2Q501.79-19.2 500.17-20.15 498.54-21.1 495.99-21.1L495.99-21.1Q493.39-21.1 492.02-20.15 490.64-19.2 490.64-17.45L490.64-17.45Q490.64-15.8 492.12-14.78 493.59-13.75 497.19-13.45L497.19-13.45Q501.64-13.05 503.81-11.28 505.99-9.5 505.99-6.6L505.99-6.6Q505.99-4.25 504.64-2.58 503.29-0.9 501.04-0.05 498.79 0.8 496.19 0.8L496.19 0.8ZM515.79 0L512.39 0 512.39-20.3 508.39-20.3 508.39-23.4 512.39-23.4 512.39-31.15 515.79-31.15 515.79-23.4 521.19-23.4 521.19-20.3 515.79-20.3 515.79 0ZM543.23-23.4L546.63-23.4 546.63 0 543.23 0 543.23-3.45Q541.78-1.45 539.68-0.33 537.58 0.8 535.08 0.8L535.08 0.8Q531.73 0.8 529.08-0.8 526.43-2.4 524.93-5.25 523.43-8.1 523.43-11.75L523.43-11.75Q523.43-15.35 524.91-18.18 526.38-21 529.01-22.6 531.63-24.2 534.98-24.2L534.98-24.2Q537.53-24.2 539.66-23.08 541.78-21.95 543.23-19.9L543.23-19.9 543.23-23.4ZM534.98-2.3Q537.38-2.3 539.26-3.5 541.13-4.7 542.18-6.85 543.23-9 543.23-11.7L543.23-11.7Q543.23-14.4 542.18-16.55 541.13-18.7 539.26-19.9 537.38-21.1 534.98-21.1L534.98-21.1Q532.63-21.1 530.78-19.9 528.93-18.7 527.88-16.57 526.83-14.45 526.83-11.75L526.83-11.75Q526.83-9 527.88-6.85 528.93-4.7 530.78-3.5 532.63-2.3 534.98-2.3L534.98-2.3ZM564.43-24.2Q565.63-24.2 566.73-23.85L566.73-23.85 566.73-20.75Q565.68-21.25 564.43-21.25L564.43-21.25Q562.28-21.25 560.43-20.05 558.58-18.85 557.46-16.57 556.33-14.3 556.33-11.2L556.33-11.2 556.33 0 552.93 0 552.93-23.4 556.33-23.4 556.33-18.7Q557.68-21.3 559.76-22.75 561.83-24.2 564.43-24.2L564.43-24.2ZM603.58-4.9L609.53-23.4 612.78-23.4 605.18 0 601.63 0 595.93-17.95 589.78 0 586.38 0 578.68-23.4 582.28-23.4 588.28-4.8 594.38-23.4 597.68-23.4 603.58-4.9ZM618.62 0L615.52 0 627.92-34.1 631.02-34.1 618.62 0ZM659.02 0L655.32 0 655.32-31 644.57-31 644.57-34.1 669.77-34.1 669.77-31 659.02-31 659.02 0ZM679.37 0.8Q676.02 0.8 673.37-0.8 670.72-2.4 669.22-5.28 667.72-8.15 667.72-11.75L667.72-11.75Q667.72-15.35 669.19-18.18 670.67-21 673.29-22.6 675.92-24.2 679.27-24.2L679.27-24.2Q682.62-24.2 685.27-22.6 687.92-21 689.42-18.15 690.92-15.3 690.92-11.7L690.92-11.7Q690.92-8.1 689.44-5.25 687.97-2.4 685.34-0.8 682.72 0.8 679.37 0.8L679.37 0.8ZM679.27-2.3Q681.67-2.3 683.54-3.5 685.42-4.7 686.47-6.85 687.52-9 687.52-11.7L687.52-11.7Q687.52-14.4 686.47-16.55 685.42-18.7 683.54-19.9 681.67-21.1 679.27-21.1L679.27-21.1Q676.92-21.1 675.07-19.9 673.22-18.7 672.17-16.57 671.12-14.45 671.12-11.75L671.12-11.75Q671.12-9 672.17-6.85 673.22-4.7 675.07-3.5 676.92-2.3 679.27-2.3L679.27-2.3ZM712.86-23.4L716.26-23.4 716.26 0 712.86 0 712.86-3.9Q711.66-1.65 709.69-0.43 707.71 0.8 705.11 0.8L705.11 0.8Q702.66 0.8 700.59-0.2 698.51-1.2 697.29-3.15 696.06-5.1 696.06-7.75L696.06-7.75 696.06-23.4 699.46-23.4 699.46-9.25Q699.46-2.3 705.66-2.3L705.66-2.3Q709.26-2.3 711.06-4.85 712.86-7.4 712.86-11.7L712.86-11.7 712.86-23.4ZM732.71 0.8Q729.31 0.8 726.66-0.8 724.01-2.4 722.51-5.25 721.01-8.1 721.01-11.7L721.01-11.7Q721.01-15.3 722.49-18.15 723.96-21 726.61-22.6 729.26-24.2 732.61-24.2L732.61-24.2Q735.46-24.2 737.59-22.98 739.71-21.75 741.46-19.5L741.46-19.5 738.96-17.55Q736.51-21.1 732.61-21.1L732.61-21.1Q730.26-21.1 728.39-19.9 726.51-18.7 725.46-16.55 724.41-14.4 724.41-11.7L724.41-11.7Q724.41-9 725.46-6.85 726.51-4.7 728.39-3.5 730.26-2.3 732.61-2.3L732.61-2.3Q735.01-2.3 736.56-3.13 738.11-3.95 739.36-5.55L739.36-5.55 742.01-3.7Q740.36-1.65 737.94-0.43 735.51 0.8 732.71 0.8L732.71 0.8ZM757.56-24.2Q760.01-24.2 762.08-23.2 764.16-22.2 765.38-20.25 766.61-18.3 766.61-15.65L766.61-15.65 766.61 0 763.21 0 763.21-14.15Q763.21-21.1 757.01-21.1L757.01-21.1Q753.41-21.1 751.61-18.55 749.81-16 749.81-11.7L749.81-11.7 749.81 0 746.41 0 746.41-36.3 749.81-36.3 749.81-19.5Q751.01-21.75 752.98-22.98 754.96-24.2 757.56-24.2L757.56-24.2Z" opacity="1" transform="matrix(1,0,0,1,0,0)" fill="#ffffff" class="undefined-text-1" data-fill-palette-color="secondary" id="text-1"></path></svg></g></svg></g></svg></g></svg></g><g transform="matrix(1,0,0,1,251.91460503155952,0)"><svg viewBox="0 0 66.16879824791431 66.16879824791431" height="66.16879824791431" width="66.16879824791431"><g><svg xmlns="http://www.w3.org/2000/svg" xmlns:xlink="http://www.w3.org/1999/xlink" version="1.1" x="0" y="0" viewBox="5 5 90 90" enable-background="new 0 0 100 100" xml:space="preserve" height="66.16879824791431" width="66.16879824791431" class="icon-icon-0" data-fill-palette-color="accent" id="icon-0"><polygon points="60,40 60,5 5,5 5,60 40,60 40,95 95,95 95,40 " fill="#ffffff" data-fill-palette-color="accent"></polygon></svg></g></svg></g></svg></g></svg></g><path d="M201.036 92.176L201.036 27.025 394.185 27.025 394.185 220.175 201.036 220.175 201.036 155.024 203.233 155.024 203.233 217.978 391.989 217.978 391.989 29.222 203.233 29.222 203.233 92.176Z" fill="#ffffff" stroke="transparent" data-fill-palette-color="primary"></path></svg></g></svg><rect width="395.52" height="247.2" fill="none" stroke="none" visibility="hidden"></rect></g></svg></g></svg>